#!OML:ASF X:\für Bonn\!DataBase\2005_08_12_Daniel\c3d\Daniel.ASF
:FULLY-SPECIFIED
:DEGREES
281
root 8.99658 16.4169 -0.857069 -737.732 -67.4053 732.158
lowerback 7.90075 -7.48511 1.24084
upperback 2.05743 -9.92649 -1.02731
thorax -2.63524 -4.9684 -0.71849
lowerneck 6.27426 10.1695 6.7005
upperneck 4.03733 14.059 -8.74266
head 1.43013 7.09711 -4.00221
rclavicle -1.15941e-013 3.18055e-015
rhumerus -39.4245 -2.27847 -90.773
rradius 45.6724
rwrist 1.13559
rhand -21.2367 13.0891
rfingers 7.12502
rthumb 5.14583 -16.8284
lclavicle -1.15941e-013 3.18055e-015
lhumerus -41.7676 8.85918 84.3463
lradius 124.3
lwrist 201.13
lhand -9.07056 17.094
lfingers 7.12502
lthumb 16.8785 46.3806
rfemur -30.2805 6.09852 3.32836
rtibia 45.5918
rfoot -9.75152 3.34246
rtoes -13.8241
lfemur 8.38213 -15.8579 -21.5555
ltibia 43.931
lfoot -29.8556 -19.4268
ltoes -8.87643
282
root 9.12126 16.4136 -0.822051 -737.937 -67.3927 732.304
lowerback 8.04136 -7.41771 0.948096
upperback 2.12057 -9.86431 -1.15163
thorax -2.61874 -4.93672 -0.682507
lowerneck 6.42923 9.8338 6.59662
upperneck 3.81735 13.5896 -8.43456
head 1.25425 6.86708 -3.90798
rclavicle 1.45113e-014 -5.56597e-015
rhumerus -39.3242 -1.86534 -91.0669
rradius 45.9566
rwrist 0.72199
rhand -21.5986 13.4642
rfingers 7.12502
rthumb 4.79637 -16.4615
lclavicle 1.45113e-014 -5.56597e-015
lhumerus -41.9259 9.22338 84.3327
lradius 124.167
lwrist 200.79
lhand -8.95155 17.4296
lfingers 7.12502
lthumb 16.9931 46.7063
rfemur -30.2322 6.94816 2.86514
rtibia 44.9625
rfoot -9.61495 2.45273
rtoes -14.3561
lfemur 8.66049 -15.6856 -21.9182
ltibia 43.3372
lfoot -30.8125 -18.7957
ltoes -8.92603
283
root 9.24739 16.4125 -0.787853 -738.162 -67.3812 732.479
lowerback 8.19119 -7.34805 0.595734
upperback 2.18513 -9.80485 -1.27221
thorax -2.59569 -4.9063 -0.610048
lowerneck 6.53253 9.4847 6.54667
upperneck 3.66946 13.1087 -8.11453
head 1.11639 6.62955 -3.81232
rclavicle -5.3324e-014 1.31198e-014
rhumerus -39.2424 -1.44605 -91.3721
rradius 46.2784
rwrist 0.217964
rhand -21.9778 13.7329
rfingers 7.12502
rthumb 4.43024 -16.2008
lclavicle -5.3324e-014 1.31198e-014
lhumerus -42.0216 9.5713 84.3462
lradius 123.968
lwrist 200.475
lhand -8.87928 17.8937
lfingers 7.12502
lthumb 17.0626 47.1644
rfemur -30.1659 7.80647 2.38802
rtibia 44.2766
rfoot -9.48726 1.56699
rtoes -14.6722
lfemur 8.87235 -15.462 -22.2681
ltibia 42.7939
lfoot -31.6427 -18.2033
ltoes -8.90996
284
root 9.37372 16.4133 -0.754075 -738.378 -67.396 732.644
lowerback 8.36691 -7.27109 0.18329
upperback 2.2447 -9.74093 -1.36293
thorax -2.57725 -4.87342 -0.472569
lowerneck 6.63038 9.11798 6.5666
upperneck 3.52628 12.6119 -7.85257
head 0.991856 6.38444 -3.74702
rclavicle 3.41164e-014 -1.35174e-014
rhumerus -39.1656 -1.03513 -91.6568
rradius 46.5835
rwrist -0.282991
rhand -22.3852 13.9649
rfingers 7.12502
rthumb 4.03677 -15.9766
lclavicle 3.41164e-014 -1.35174e-014
lhumerus -42.0752 9.91017 84.3977
lradius 123.751
lwrist 200.058
lhand -8.80422 18.328
lfingers 7.12502
lthumb 17.1349 47.5924
rfemur -30.0768 8.71756 1.91479
rtibia 43.5446
rfoot -9.43504 0.689719
rtoes -14.864
lfemur 9.02656 -15.178 -22.592
ltibia 42.2974
lfoot -32.368 -17.6422
ltoes -8.73289
285
root 9.50041 16.4177 -0.721638 -738.595 -67.4094 732.799
lowerback 8.56104 -7.19921 -0.229016
upperback 2.30791 -9.68567 -1.45851
thorax -2.56667 -4.84506 -0.336846
lowerneck 6.76305 8.76226 6.55164
upperneck 3.37513 12.1289 -7.55219
head 0.856623 6.14559 -3.66284
rclavicle -1.30154e-013 9.14409e-015
rhumerus -39.1474 -0.637636 -91.9427
rradius 46.9748
rwrist -0.837707
rhand -22.7191 14.1071
rfingers 7.12502
rthumb 3.71441 -15.8403
lclavicle -1.30154e-013 9.14409e-015
lhumerus -42.1194 10.2136 84.4331
lradius 123.546
lwrist 199.688
lhand -8.76558 18.6787
lfingers 7.12502
lthumb 17.1721 47.9399
rfemur -29.9426 9.72628 1.44269
rtibia 42.7772
rfoot -9.47514 -0.24762
rtoes -14.7642
lfemur 9.12115 -14.8978 -22.9134
ltibia 41.8456
lfoot -33.0158 -17.1047
ltoes -8.74081
286
root 9.62629 16.4242 -0.690396 -738.851 -67.4296 732.987
lowerback 8.76188 -7.12812 -0.662313
upperback 2.38135 -9.63505 -1.55012
thorax -2.54557 -4.81935 -0.185554
lowerneck 6.89518 8.42375 6.48994
upperneck 3.20923 11.6665 -7.23286
head 0.716378 5.9157 -3.56233
rclavicle 1.41386e-014 -1.70955e-014
rhumerus -39.1155 -0.384378 -92.1833
rradius 47.2799
rwrist -1.26324
rhand -23.0478 14.231
rfingers 7.12502
rthumb 3.39697 -15.7217
lclavicle 1.41386e-014 -1.70955e-014
lhumerus -42.1693 10.4709 84.4601
lradius 123.377
lwrist 199.311
lhand -8.73573 18.9072
lfingers 7.12502
lthumb 17.2008 48.1659
rfemur -29.7709 10.8761 0.954879
rtibia 41.9903
rfoot -9.64965 -1.31383
rtoes -14.1854
lfemur 9.17057 -14.6069 -23.2366
ltibia 41.4281
lfoot -33.5862 -16.5946
ltoes -8.76743
287
root 9.75019 16.4345 -0.660257 -739.111 -67.4597 733.187
lowerback 8.95659 -7.04825 -1.10641
upperback 2.45225 -9.57605 -1.65709
thorax -2.5251 -4.78975 -0.0455641
lowerneck 7.04823 8.07993 6.52594
upperneck 3.05196 11.2074 -6.9601
head 0.587308 5.68839 -3.49444
rclavicle 9.20621e-014 1.15295e-014
rhumerus -39.1432 -0.306183 -92.3858
rradius 47.5488
rwrist -1.59798
rhand -23.3003 14.3824
rfingers 7.12502
rthumb 3.15314 -15.5741
lclavicle 9.20621e-014 1.15295e-014
lhumerus -42.2643 10.6267 84.4223
lradius 123.292
lwrist 198.962
lhand -8.69475 18.9271
lfingers 7.12502
lthumb 17.2403 48.1824
rfemur -29.5769 12.343 0.432929
rtibia 41.1988
rfoot -10.061 -2.63059
rtoes -13.1369
lfemur 9.1822 -14.3235 -23.5607
ltibia 41.0445
lfoot -34.1532 -16.02
ltoes -9.17115
288
root 9.87323 16.4478 -0.63163 -739.38 -67.4913 733.388
lowerback 9.17863 -6.98006 -1.59755
upperback 2.51582 -9.5384 -1.73553
thorax -2.5151 -4.77057 0.154375
lowerneck 7.12703 7.76791 6.4827
upperneck 2.96599 10.7845 -6.64373
head 0.491227 5.47589 -3.38987
rclavicle 4.09993e-014 -3.37934e-015
rhumerus -39.2342 -0.0757871 -92.5789
rradius 47.9138
rwrist -2.02558
rhand -23.5149 14.4282
rfingers 7.12502
rthumb 2.9458 -15.5312
lclavicle 4.09993e-014 -3.37934e-015
lhumerus -42.4238 10.8243 84.3747
lradius 123.286
lwrist 198.653
lhand -8.67827 18.8071
lfingers 7.12502
lthumb 17.2561 48.061
rfemur -29.3587 13.959 -0.0884004
rtibia 40.4367
rfoot -10.7202 -4.09304
rtoes -12.2732
lfemur 9.16259 -14.0453 -23.8667
ltibia 40.6897
lfoot -34.6878 -15.4925
ltoes -9.86345
289
root 9.99796 16.4626 -0.60486 -739.706 -67.5314 733.665
lowerback 9.37627 -6.89797 -2.10048
upperback 2.5844 -9.48582 -1.83555
thorax -2.48893 -4.74462 0.33347
lowerneck 7.23246 7.44345 6.47013
upperneck 2.88557 10.3495 -6.34359
head 0.396303 5.25756 -3.29655
rclavicle 5.03174e-015 -2.18663e-015
rhumerus -39.3427 0.193086 -92.786
rradius 48.3441
rwrist -2.55375
rhand -23.7342 14.3279
rfingers 7.12502
rthumb 2.73402 -15.6343
lclavicle 5.03174e-015 -2.18663e-015
lhumerus -42.5563 10.9421 84.2896
lradius 123.315
lwrist 198.396
lhand -8.71907 18.6048
lfingers 7.12502
lthumb 17.2168 47.8621
rfemur -29.1801 15.7493 -0.661069
rtibia 39.7228
rfoot -11.6353 -5.72381
rtoes -11.8565
lfemur 9.08608 -13.7778 -24.1859
ltibia 40.3662
lfoot -35.1154 -14.9933
ltoes -10.3982
290
root 10.1233 16.4784 -0.579148 -740.047 -67.5684 733.936
lowerback 9.57401 -6.82365 -2.59126
upperback 2.66594 -9.44414 -1.92831
thorax -2.45034 -4.72495 0.513509
lowerneck 7.34795 7.14127 6.30234
upperneck 2.79227 9.93245 -5.95934
head 0.285863 5.04558 -3.14678
rclavicle -4.93359e-014 -7.95139e-016
rhumerus -39.4468 0.42711 -92.9548
rradius 48.7974
rwrist -3.07647
rhand -23.8361 14.21
rfingers 7.12502
rthumb 2.63566 -15.7534
lclavicle -4.93359e-014 -7.95139e-016
lhumerus -42.6903 11.0616 84.2144
lradius 123.362
lwrist 198.149
lhand -8.73984 18.3662
lfingers 7.12502
lthumb 17.1969 47.6253
rfemur -29.0003 17.5984 -1.22421
rtibia 39.0927
rfoot -12.8097 -7.43919
rtoes -11.3483
lfemur 9.0019 -13.5572 -24.5103
ltibia 40.069
lfoot -35.4645 -14.5398
ltoes -10.9233
291
root 10.2497 16.4965 -0.554123 -740.378 -67.622 734.183
lowerback 9.77994 -6.75312 -3.03187
upperback 2.74958 -9.40514 -2.02571
thorax -2.42312 -4.707 0.663602
lowerneck 7.4789 6.86008 6.04808
upperneck 2.7131 9.53774 -5.52164
head 0.174947 4.84297 -2.9633
rclavicle 6.35738e-014 -7.15625e-015
rhumerus -39.562 0.572648 -93.1069
rradius 49.2569
rwrist -3.54665
rhand -23.8765 14.1238
rfingers 7.12502
rthumb 2.59665 -15.8402
lclavicle 6.35738e-014 -7.15625e-015
lhumerus -42.8026 11.1644 84.1175
lradius 123.403
lwrist 197.951
lhand -8.81618 18.149
lfingers 7.12502
lthumb 17.1234 47.4144
rfemur -28.8405 19.5112 -1.76541
rtibia 38.5492
rfoot -14.1893 -9.22492
rtoes -11.0578
lfemur 8.88928 -13.3781 -24.8138
ltibia 39.8096
lfoot -35.7313 -14.1993
ltoes -11.264
